<?xml version="1.0" encoding="utf-8"?>
<!-- Generator: Adobe Illustrator 21.0.0, SVG Export Plug-In . SVG Version: 6.00 Build 0)  -->
<svg version="1.1" id="Layer_1" xmlns="http://www.w3.org/2000/svg" xmlns:xlink="http://www.w3.org/1999/xlink" x="0px" y="0px"
	 viewBox="0 0 331 92.5" style="enable-background:new 0 0 331 92.5;" xml:space="preserve">
<style type="text/css">
	.st0{fill:#00509F;}
</style>
<g>
	<g>
		<g>
			<path d="M0.2,80.6l3.6-0.4c0.2,1.2,0.7,2.1,1.3,2.7c0.7,0.6,1.6,0.9,2.7,0.9c1.2,0,2.1-0.3,2.7-0.8c0.6-0.5,0.9-1.1,0.9-1.8
				c0-0.4-0.1-0.8-0.4-1.1c-0.3-0.3-0.7-0.6-1.3-0.8c-0.4-0.2-1.4-0.4-3-0.8c-2-0.5-3.4-1.1-4.2-1.8c-1.1-1-1.7-2.3-1.7-3.8
				c0-0.9,0.3-1.8,0.8-2.7C2.2,69.4,3,68.7,4,68.3c1-0.4,2.2-0.6,3.6-0.6c2.3,0,4.1,0.5,5.2,1.5c1.2,1,1.8,2.4,1.8,4.1L11,73.5
				c-0.2-1-0.5-1.6-1-2.1c-0.5-0.4-1.3-0.6-2.4-0.6c-1.1,0-1.9,0.2-2.5,0.7c-0.4,0.3-0.6,0.7-0.6,1.2c0,0.4,0.2,0.8,0.6,1.1
				c0.5,0.4,1.6,0.8,3.4,1.2c1.8,0.4,3.2,0.9,4,1.3c0.9,0.5,1.6,1.1,2,1.9c0.5,0.8,0.7,1.8,0.7,3c0,1.1-0.3,2.1-0.9,3
				c-0.6,0.9-1.4,1.6-2.5,2.1c-1.1,0.5-2.4,0.7-4,0.7c-2.3,0-4.1-0.5-5.4-1.6C1.2,84.2,0.5,82.7,0.2,80.6"/>
			<path d="M20.3,77.2L17,76.6c0.4-1.3,1-2.3,1.9-2.9c0.9-0.6,2.2-0.9,3.9-0.9c1.6,0,2.8,0.2,3.5,0.6c0.8,0.4,1.3,0.9,1.6,1.4
				c0.3,0.6,0.5,1.7,0.5,3.2l0,4.2c0,1.2,0.1,2.1,0.2,2.6c0.1,0.6,0.3,1.2,0.6,1.8h-3.5c-0.1-0.2-0.2-0.6-0.3-1.1
				c-0.1-0.2-0.1-0.4-0.1-0.4c-0.6,0.6-1.3,1-1.9,1.3c-0.7,0.3-1.4,0.4-2.2,0.4c-1.4,0-2.5-0.4-3.3-1.1c-0.8-0.8-1.2-1.7-1.2-2.9
				c0-0.8,0.2-1.4,0.5-2c0.4-0.6,0.9-1.1,1.5-1.4c0.7-0.3,1.6-0.6,2.8-0.8c1.7-0.3,2.8-0.6,3.4-0.9v-0.4c0-0.7-0.2-1.2-0.5-1.5
				c-0.3-0.3-1-0.4-1.9-0.4c-0.6,0-1.1,0.1-1.5,0.4C20.8,76.2,20.5,76.6,20.3,77.2 M25,80.1c-0.5,0.2-1.2,0.3-2.2,0.5
				c-1,0.2-1.6,0.4-1.9,0.6c-0.5,0.3-0.7,0.8-0.7,1.3c0,0.5,0.2,0.9,0.6,1.3c0.4,0.4,0.8,0.5,1.4,0.5c0.6,0,1.2-0.2,1.8-0.6
				c0.4-0.3,0.7-0.7,0.8-1.2c0.1-0.3,0.1-0.9,0.1-1.7V80.1z"/>
			<path d="M31.6,71.3V68h3.5v3.3 M31.6,86.6V73.1h3.5v13.5H31.6z"/>
			<path d="M50.6,86.6H47v-6.9c0-1.5-0.1-2.4-0.2-2.8c-0.2-0.4-0.4-0.8-0.7-1c-0.3-0.2-0.8-0.4-1.2-0.4c-0.6,0-1.2,0.2-1.7,0.5
				c-0.5,0.3-0.8,0.8-1,1.4C42,78,41.9,79,41.9,80.5v6.1h-3.5V73.1h3.3v2c1.2-1.5,2.6-2.3,4.4-2.3c0.8,0,1.5,0.1,2.1,0.4
				c0.6,0.3,1.1,0.6,1.5,1.1c0.3,0.4,0.6,0.9,0.7,1.5c0.1,0.6,0.2,1.4,0.2,2.4"/>
			<path d="M52.3,82.8l3.6-0.5c0.2,0.7,0.5,1.2,0.9,1.6c0.5,0.4,1.1,0.5,1.9,0.5c0.9,0,1.6-0.2,2.1-0.5c0.3-0.2,0.5-0.6,0.5-1
				c0-0.3-0.1-0.5-0.3-0.7c-0.2-0.2-0.6-0.3-1.2-0.5c-2.9-0.6-4.7-1.2-5.4-1.7c-1.1-0.7-1.6-1.7-1.6-3c0-1.2,0.5-2.2,1.4-3
				c0.9-0.8,2.3-1.2,4.3-1.2c1.8,0,3.2,0.3,4.1,0.9c0.9,0.6,1.5,1.5,1.8,2.7L61,77c-0.1-0.5-0.4-0.9-0.8-1.2c-0.4-0.3-1-0.4-1.7-0.4
				c-0.9,0-1.6,0.1-2,0.4c-0.3,0.2-0.4,0.4-0.4,0.7c0,0.3,0.1,0.5,0.4,0.6c0.3,0.2,1.4,0.6,3.3,1c1.9,0.4,3.2,1,4,1.6
				c0.7,0.6,1.1,1.5,1.1,2.7c0,1.2-0.5,2.3-1.5,3.2c-1,0.9-2.5,1.3-4.6,1.3c-1.8,0-3.3-0.4-4.3-1.1C53.3,85.1,52.6,84.1,52.3,82.8"
				/>
			<path d="M67.1,86.6V68h3.5v6.7c1.1-1.3,2.4-1.9,3.9-1.9c1.6,0,3,0.6,4.1,1.8c1.1,1.2,1.6,2.9,1.6,5.1c0,2.3-0.5,4.1-1.6,5.3
				s-2.4,1.9-4,1.9c-0.8,0-1.5-0.2-2.3-0.6c-0.7-0.4-1.4-1-1.9-1.7v2 M70.6,79.6c0,1.4,0.2,2.4,0.7,3.1c0.6,1,1.4,1.4,2.4,1.4
				c0.8,0,1.4-0.3,2-1c0.6-0.7,0.8-1.7,0.8-3.2c0-1.5-0.3-2.7-0.8-3.3c-0.6-0.7-1.3-1-2.1-1c-0.8,0-1.6,0.3-2.1,1
				C70.9,77.2,70.6,78.2,70.6,79.6z"/>
			<path d="M91.1,86.6v-2c-0.5,0.7-1.1,1.3-1.9,1.7c-0.8,0.4-1.6,0.6-2.5,0.6c-0.9,0-1.7-0.2-2.4-0.6c-0.7-0.4-1.2-1-1.6-1.7
				c-0.3-0.7-0.5-1.7-0.5-3v-8.6h3.5v6.2c0,1.9,0.1,3.1,0.2,3.5c0.1,0.4,0.4,0.8,0.7,1c0.3,0.3,0.8,0.4,1.3,0.4
				c0.6,0,1.1-0.2,1.6-0.5c0.5-0.3,0.8-0.8,1-1.2c0.2-0.5,0.3-1.7,0.3-3.7v-5.7h3.5v13.5"/>
			<path d="M101.2,86.6h-3.5V73.1h3.3V75c0.6-0.9,1.1-1.5,1.5-1.8s1-0.4,1.5-0.4c0.8,0,1.6,0.2,2.3,0.7l-1.1,3.1
				c-0.6-0.4-1.2-0.6-1.7-0.6c-0.5,0-0.9,0.1-1.3,0.4c-0.3,0.3-0.6,0.8-0.8,1.5c-0.2,0.7-0.3,2.2-0.3,4.5"/>
			<path d="M106.8,73.1h3.8l3.2,9.6l3.1-9.6h3.7l-4.7,13l-0.8,2.4c-0.3,0.8-0.6,1.4-0.9,1.8c-0.3,0.4-0.6,0.8-1,1
				c-0.4,0.3-0.8,0.5-1.3,0.6c-0.5,0.1-1.1,0.2-1.8,0.2c-0.7,0-1.4-0.1-2-0.2l-0.3-2.8c0.6,0.1,1.1,0.2,1.5,0.2
				c0.8,0,1.4-0.2,1.8-0.7c0.4-0.5,0.7-1.1,0.9-1.9"/>
			<polyline points="131.7,86.6 127.2,68 131.1,68 134,80.8 137.4,68 142,68 145.3,81 148.2,68 152,68 147.4,86.6 143.4,86.6 
				139.6,72.7 135.9,86.6 			"/>
			<path d="M160.4,82.3l3.6,0.6c-0.5,1.3-1.2,2.3-2.2,3c-1,0.7-2.2,1-3.8,1c-2.4,0-4.1-0.8-5.3-2.3c-0.9-1.2-1.4-2.8-1.4-4.7
				c0-2.2,0.6-4,1.8-5.3c1.2-1.3,2.7-1.9,4.5-1.9c2,0,3.6,0.7,4.8,2c1.2,1.3,1.7,3.4,1.7,6.1h-9.1c0,1.1,0.3,1.9,0.9,2.5
				c0.6,0.6,1.3,0.9,2.1,0.9c0.6,0,1-0.2,1.4-0.5C159.9,83.5,160.2,83,160.4,82.3 M160.6,78.7c0-1-0.3-1.8-0.8-2.4
				c-0.5-0.5-1.1-0.8-1.9-0.8c-0.8,0-1.4,0.3-2,0.9c-0.5,0.6-0.8,1.3-0.8,2.3H160.6z"/>
			<polyline points="166.6,86.6 166.6,68 170.2,68 170.2,86.6 			"/>
			<polyline points="173.4,86.6 173.4,68 177,68 177,86.6 			"/>
			<path d="M192.1,77.1l-3.6,0.6c-0.1-0.7-0.4-1.2-0.8-1.6c-0.4-0.4-1-0.5-1.7-0.5c-0.9,0-1.6,0.3-2.2,0.9c-0.5,0.6-0.8,1.6-0.8,3.1
				c0,1.6,0.3,2.7,0.8,3.4c0.5,0.7,1.3,1,2.2,1c0.7,0,1.2-0.2,1.7-0.6c0.4-0.4,0.7-1.1,0.9-2l3.6,0.6c-0.4,1.6-1.1,2.8-2.1,3.7
				c-1,0.8-2.4,1.2-4.2,1.2c-2,0-3.6-0.6-4.8-1.9c-1.2-1.2-1.8-3-1.8-5.2c0-2.2,0.6-4,1.8-5.2c1.2-1.2,2.8-1.9,4.8-1.9
				c1.7,0,3,0.4,4,1.1C191,74.6,191.7,75.7,192.1,77.1"/>
			<path d="M193.5,79.7c0-1.2,0.3-2.3,0.9-3.5c0.6-1.1,1.4-2,2.5-2.5c1.1-0.6,2.3-0.9,3.6-0.9c2.1,0,3.8,0.7,5.1,2c1.3,1.3,2,3,2,5
				c0,2-0.7,3.7-2,5.1c-1.3,1.3-3,2-5,2c-1.3,0-2.4-0.3-3.6-0.8c-1.1-0.6-2-1.4-2.6-2.5C193.8,82.6,193.5,81.2,193.5,79.7
				 M197.2,79.9c0,1.3,0.3,2.4,1,3.1c0.6,0.7,1.4,1.1,2.4,1.1c0.9,0,1.7-0.4,2.4-1.1c0.6-0.7,1-1.8,1-3.1c0-1.3-0.3-2.3-1-3.1
				c-0.6-0.7-1.4-1.1-2.4-1.1c-0.9,0-1.7,0.4-2.4,1.1C197.6,77.5,197.2,78.5,197.2,79.9z"/>
			<path d="M209.7,73.1h3.3V75c1.2-1.4,2.6-2.2,4.3-2.2c0.9,0,1.6,0.2,2.3,0.5c0.6,0.4,1.2,0.9,1.6,1.6c0.6-0.7,1.2-1.3,1.9-1.6
				c0.7-0.4,1.4-0.5,2.2-0.5c1,0,1.9,0.2,2.5,0.6c0.7,0.4,1.2,1,1.6,1.8c0.2,0.6,0.4,1.5,0.4,2.8v8.7h-3.6v-7.7
				c0-1.3-0.1-2.2-0.4-2.6c-0.3-0.5-0.9-0.8-1.5-0.8c-0.5,0-1,0.2-1.4,0.5c-0.4,0.3-0.8,0.8-1,1.3c-0.2,0.6-0.3,1.5-0.3,2.8v6.5
				h-3.6v-7.4c0-1.3-0.1-2.2-0.2-2.5c-0.1-0.4-0.3-0.7-0.6-0.9c-0.3-0.2-0.6-0.3-1.1-0.3c-0.6,0-1.1,0.1-1.5,0.4
				c-0.4,0.3-0.8,0.7-1,1.3c-0.2,0.6-0.3,1.5-0.3,2.8v6.6h-3.6"/>
			<path d="M240.8,82.3l3.6,0.6c-0.5,1.3-1.2,2.3-2.2,3c-1,0.7-2.3,1-3.8,1c-2.4,0-4.1-0.8-5.3-2.3c-0.9-1.2-1.4-2.8-1.4-4.7
				c0-2.2,0.6-4,1.8-5.3c1.2-1.3,2.7-1.9,4.5-1.9c2,0,3.6,0.7,4.8,2c1.2,1.3,1.7,3.4,1.7,6.1h-9.1c0,1.1,0.3,1.9,0.9,2.5
				c0.6,0.6,1.3,0.9,2.1,0.9c0.6,0,1-0.2,1.4-0.5C240.3,83.5,240.6,83,240.8,82.3 M241,78.7c0-1-0.3-1.8-0.8-2.4
				c-0.5-0.5-1.1-0.8-1.9-0.8c-0.8,0-1.4,0.3-2,0.9c-0.5,0.6-0.8,1.3-0.8,2.3H241z"/>
			<path d="M265.4,79.8l3.7,1.2c-0.6,2-1.5,3.6-2.8,4.5c-1.3,1-3,1.5-5,1.5c-2.5,0-4.5-0.8-6.1-2.5c-1.6-1.7-2.4-4-2.4-7
				c0-3.1,0.8-5.5,2.4-7.2c1.6-1.7,3.7-2.6,6.3-2.6c2.3,0,4.1,0.7,5.6,2c0.8,0.8,1.5,1.9,1.9,3.4l-3.7,0.9c-0.2-1-0.7-1.7-1.4-2.3
				c-0.7-0.6-1.6-0.8-2.6-0.8c-1.4,0-2.5,0.5-3.4,1.5c-0.9,1-1.3,2.6-1.3,4.8c0,2.4,0.4,4,1.3,5c0.8,1,2,1.5,3.3,1.5
				c1,0,1.9-0.3,2.6-1C264.5,82.1,265.1,81.1,265.4,79.8"/>
			<path d="M279.2,82.3l3.6,0.6c-0.5,1.3-1.2,2.3-2.2,3c-1,0.7-2.2,1-3.7,1c-2.4,0-4.1-0.8-5.2-2.3c-0.9-1.2-1.3-2.8-1.3-4.7
				c0-2.2,0.6-4,1.8-5.3c1.2-1.3,2.7-1.9,4.4-1.9c2,0,3.6,0.7,4.8,2c1.2,1.3,1.7,3.4,1.7,6.1h-9c0,1.1,0.3,1.9,0.9,2.5
				s1.2,0.9,2.1,0.9c0.6,0,1-0.2,1.4-0.5C278.7,83.5,279,83,279.2,82.3 M279.4,78.7c0-1-0.3-1.8-0.8-2.4c-0.5-0.5-1.1-0.8-1.9-0.8
				c-0.8,0-1.4,0.3-1.9,0.9c-0.5,0.6-0.8,1.3-0.8,2.3H279.4z"/>
			<path d="M297.6,86.6H294v-6.9c0-1.5-0.1-2.4-0.2-2.8c-0.2-0.4-0.4-0.8-0.7-1c-0.3-0.2-0.8-0.4-1.2-0.4c-0.6,0-1.2,0.2-1.7,0.5
				c-0.5,0.3-0.8,0.8-1,1.4c-0.2,0.6-0.3,1.6-0.3,3.1v6.1h-3.6V73.1h3.3v2c1.2-1.5,2.7-2.3,4.5-2.3c0.8,0,1.5,0.1,2.2,0.4
				c0.7,0.3,1.2,0.6,1.5,1.1c0.3,0.4,0.6,0.9,0.7,1.5c0.1,0.6,0.2,1.4,0.2,2.4"/>
			<path d="M307.1,73.1V76h-2.4v5.5c0,1.1,0,1.7,0.1,1.9c0,0.2,0.2,0.3,0.3,0.5c0.2,0.1,0.4,0.2,0.6,0.2c0.3,0,0.8-0.1,1.4-0.3
				l0.3,2.8c-0.8,0.4-1.8,0.5-2.8,0.5c-0.6,0-1.2-0.1-1.7-0.3c-0.5-0.2-0.9-0.5-1.1-0.8c-0.2-0.3-0.4-0.8-0.5-1.4
				c-0.1-0.4-0.1-1.3-0.1-2.5V76h-1.6v-2.9h1.6v-2.7l3.6-2.1v4.8"/>
			<path d="M313.2,86.6h-3.6V73.1h3.3V75c0.6-0.9,1.1-1.5,1.5-1.8c0.5-0.3,1-0.4,1.5-0.4c0.8,0,1.6,0.2,2.4,0.7l-1.1,3.1
				c-0.6-0.4-1.2-0.6-1.7-0.6c-0.5,0-0.9,0.1-1.3,0.4c-0.3,0.3-0.6,0.8-0.8,1.5c-0.2,0.7-0.3,2.2-0.3,4.5"/>
			<path d="M327,82.3l3.6,0.6c-0.5,1.3-1.2,2.3-2.2,3c-1,0.7-2.2,1-3.7,1c-2.4,0-4.1-0.8-5.2-2.3c-0.9-1.2-1.3-2.8-1.3-4.7
				c0-2.2,0.6-4,1.8-5.3c1.2-1.3,2.7-1.9,4.4-1.9c2,0,3.6,0.7,4.8,2c1.2,1.3,1.7,3.4,1.7,6.1h-9c0,1.1,0.3,1.9,0.9,2.5
				c0.6,0.6,1.2,0.9,2.1,0.9c0.6,0,1-0.2,1.4-0.5C326.5,83.5,326.8,83,327,82.3 M327.2,78.7c0-1-0.3-1.8-0.8-2.4
				c-0.5-0.5-1.1-0.8-1.9-0.8c-0.8,0-1.4,0.3-1.9,0.9c-0.5,0.6-0.8,1.3-0.8,2.3H327.2z"/>
			<polyline class="st0" points="55.8,53.5 53.1,53.5 53.1,0 55.8,0 			"/>
			<polyline class="st0" points="87.9,53.5 82.6,53.5 82.6,0 87.9,0 			"/>
			<polyline class="st0" points="120.1,53.5 114.7,53.5 114.7,0 120.1,0 			"/>
			<polyline class="st0" points="142.8,53.5 140.1,53.5 140.1,0 142.8,0 			"/>
			<polyline class="st0" points="158.9,53.5 156.2,53.5 156.2,0 158.9,0 			"/>
			<polyline class="st0" points="174.9,53.5 172.3,53.5 172.3,0 174.9,0 			"/>
			<polyline class="st0" points="191,53.5 188.3,53.5 188.3,0 191,0 			"/>
			<polyline class="st0" points="216.4,53.5 211.1,53.5 211.1,0 216.4,0 			"/>
			<polyline class="st0" points="248.6,53.5 243.2,53.5 243.2,0 248.6,0 			"/>
			<polyline class="st0" points="71.9,49.5 66.5,49.5 66.5,4 71.9,4 			"/>
			<polyline class="st0" points="104,49.5 98.6,49.5 98.6,4 104,4 			"/>
			<polyline class="st0" points="134.8,49.5 130.8,49.5 130.8,4 134.8,4 			"/>
			<polyline class="st0" points="150.8,50.9 148.2,50.9 148.2,2.7 150.8,2.7 			"/>
			<polyline class="st0" points="166.9,50.9 164.2,50.9 164.2,2.7 166.9,2.7 			"/>
			<polyline class="st0" points="183,50.9 180.3,50.9 180.3,2.7 183,2.7 			"/>
			<polyline class="st0" points="200.4,49.5 196.4,49.5 196.4,4 200.4,4 			"/>
			<polyline class="st0" points="232.5,49.5 227.1,49.5 227.1,4 232.5,4 			"/>
			<polyline class="st0" points="264.6,49.5 259.3,49.5 259.3,4 264.6,4 			"/>
			<polyline class="st0" points="278,53.5 275.3,53.5 275.3,0 278,0 			"/>
		</g>
	</g>
</g>
</svg>
